<?xml version="1.0" encoding="UTF-8"?>
<svg width="128" height="128" viewBox="0 0 128 128" xmlns="http://www.w3.org/2000/svg">
  <defs>
    <linearGradient id="cosmosgradient" x1="0%" y1="0%" x2="100%" y2="100%">
      <stop offset="0%" style="stop-color:#6E44FF;stop-opacity:1" />
      <stop offset="50%" style="stop-color:#00C4FF;stop-opacity:1" />
      <stop offset="100%" style="stop-color:#7D2FE1;stop-opacity:1" />
    </linearGradient>
    <filter id="cosmicglow" x="-30%" y="-30%" width="160%" height="160%">
      <feGaussianBlur stdDeviation="3" result="blur" />
      <feComposite in="SourceGraphic" in2="blur" operator="over" />
    </filter>
    <filter id="starglow" x="-100%" y="-100%" width="300%" height="300%">
      <feGaussianBlur stdDeviation="1" result="blur" />
      <feComposite in="SourceGraphic" in2="blur" operator="over" />
    </filter>
  </defs>
  
  <!-- Deep space background -->
  <circle cx="64" cy="64" r="64" fill="#070B1E" />
  
  <!-- Distant stars -->
  <g fill="#FFFFFF" opacity="0.8">
    <circle cx="15" cy="25" r="0.7" filter="url(#starglow)" />
    <circle cx="35" cy="15" r="0.9" filter="url(#starglow)" />
    <circle cx="85" cy="20" r="0.6" filter="url(#starglow)" />
    <circle cx="105" cy="35" r="0.8" filter="url(#starglow)" />
    <circle cx="110" cy="75" r="0.7" filter="url(#starglow)" />
    <circle cx="95" cy="105" r="0.9" filter="url(#starglow)" />
    <circle cx="25" cy="95" r="0.8" filter="url(#starglow)" />
    <circle cx="45" cy="110" r="0.6" filter="url(#starglow)" />
    <circle cx="15" cy="65" r="0.7" filter="url(#starglow)" />
    <circle cx="55" cy="15" r="0.9" filter="url(#starglow)" />
    <circle cx="115" cy="35" r="0.7" filter="url(#starglow)" />
    <circle cx="20" cy="105" r="0.6" filter="url(#starglow)" />
    <circle cx="80" cy="110" r="0.7" filter="url(#starglow)" />
  </g>
  
  <!-- Brighter stars -->
  <g fill="#FFFFFF">
    <circle cx="30" cy="30" r="1.2" filter="url(#starglow)" />
    <circle cx="90" cy="25" r="1.4" filter="url(#starglow)" />
    <circle cx="100" cy="80" r="1.3" filter="url(#starglow)" />
    <circle cx="40" cy="95" r="1.2" filter="url(#starglow)" />
    <circle cx="65" cy="20" r="1.5" filter="url(#starglow)" />
  </g>
  
  <!-- Cosmic spiral (galaxy representation) -->
  <path d="M64,32 
           C70,34 76,40 78,48 
           C80,56 78,64 74,70 
           C70,76 64,78 58,76 
           C52,74 48,70 46,64 
           C44,58 46,52 50,48 
           C54,44 58,42 64,44 
           C68,46 70,50 68,54 
           C66,58 62,60 58,58" 
        stroke="url(#cosmosgradient)" 
        stroke-width="5" 
        fill="none" 
        filter="url(#cosmicglow)" />
  
  <!-- Central cosmic nucleus (black hole/stellar core) -->
  <circle cx="64" cy="64" r="16" fill="url(#cosmosgradient)" filter="url(#cosmicglow)" />
  
  <!-- Cosmic dust particles -->
  <g fill="#FFFFFF" opacity="0.6">
    <circle cx="74" cy="44" r="1.5" />
    <circle cx="82" cy="58" r="1.2" />
    <circle cx="76" cy="72" r="1.3" />
    <circle cx="60" cy="80" r="1.1" />
    <circle cx="48" cy="68" r="1.4" />
    <circle cx="50" cy="52" r="1.2" />
  </g>
  
  <!-- Orbital ring -->
  <ellipse cx="64" cy="64" rx="46" ry="46" fill="none" stroke="rgba(255,255,255,0.4)" stroke-width="1" stroke-dasharray="3,3" />
  
  <!-- Cosmic energy waves -->
  <path d="M32,64 Q48,48 64,64 Q80,80 96,64" 
        stroke="rgba(255,255,255,0.7)" 
        stroke-width="1.5" 
        fill="none" />
</svg>